<svg class="svg-icon" style="width:1em;height:1em;vertical-align:middle;fill:currentColor;overflow:hidden" viewBox="0 0 1024 1024" xmlns="http://www.w3.org/2000/svg"><path fill="#50FFD6" d="M470.098 692.593c59.044 0 114.81-20.93 159.191-59.003l215.736 216.269a20.4 20.4 0 0 0 28.959.04 20.48 20.48 0 0 0 .041-28.958l-215.92-216.433c80.834-96.543 76.123-241.11-14.44-331.878-46.366-46.49-108.01-72.09-173.588-72.09s-127.221 25.6-173.588 72.09c-95.662 95.928-95.662 251.986 0 347.894a243.7 243.7 0 0 0 173.609 72.069M325.53 301.548c38.625-38.728 89.968-60.048 144.588-60.048s105.964 21.32 144.59 60.048c79.769 79.974 79.769 210.083 0 290.058-38.626 38.727-89.97 60.047-144.59 60.047s-105.963-21.32-144.588-60.047c-79.77-79.995-79.77-210.084 0-290.058"/><path fill="#50FFD6" d="M378.368 466.575h76.861v76.862a20.48 20.48 0 1 0 40.96 0v-76.862h76.841a20.48 20.48 0 1 0 0-40.96h-76.84v-76.861a20.48 20.48 0 1 0-40.96 0v76.861h-76.862a20.48 20.48 0 1 0 0 40.96"/></svg>