<svg class="svg-icon" style="width:1em;height:1em;vertical-align:middle;fill:currentColor;overflow:hidden" viewBox="0 0 1024 1024" xmlns="http://www.w3.org/2000/svg"><path fill="#50FFD6" d="M454.308 692.593c59.044 0 114.81-20.93 159.19-59.003l215.737 216.269a20.4 20.4 0 0 0 28.959.04 20.48 20.48 0 0 0 .04-28.958l-215.92-216.433c80.835-96.543 76.104-241.11-14.438-331.878-46.367-46.49-108.012-72.09-173.589-72.09s-127.221 25.6-173.588 72.09c-95.683 95.928-95.683 251.986 0 347.894a243.7 243.7 0 0 0 173.609 72.069M309.719 301.548c38.625-38.728 89.969-60.048 144.589-60.048s105.963 21.32 144.589 60.048c79.77 79.974 79.77 210.083 0 290.058-38.626 38.727-89.969 60.047-144.59 60.047s-105.963-21.32-144.588-60.047c-79.77-79.995-79.77-210.084 0-290.058"/><path fill="#50FFD6" d="M357.888 467.395H558.08a20.48 20.48 0 1 0 0-40.96H357.888a20.48 20.48 0 1 0 0 40.96"/></svg>